<?xml version="1.0" encoding="utf-8"?>
<svg version="1.1" id="Layer_1" xmlns="http://www.w3.org/2000/svg" xmlns:xlink="http://www.w3.org/1999/xlink" x="0px" y="0px" viewBox="0 0 400 400"
	 style="enable-background:new 0 0 400 400;" xml:space="preserve">
<style type="text/css">
	.st0{fill: white; stroke: black; stroke-width: 3;}
	.st1{fill: white; stroke: black; stroke-width: 3;}
	.st2{fill: white; stroke: black; stroke-width: 3;}
	.st3{fill: white; stroke: black; stroke-width: 3;}
</style>
<path class="st0" d="M875.91,66.28c-1.74,0-3.47,0.02-5.19,0.07h10.38C879.37,66.3,877.64,66.28,875.91,66.28z"/>
<path class="st0" d="M400.08,0.07"/>
<path class="st0" d="M200.09,0.07h199.99v199.82C400.08,89.53,310.54,0.07,200.09,0.07"/>
<path class="st1" d="M400.08,199.89c0-110.36-89.54-199.82-199.99-199.82h199.99V199.89z"/>
<path class="st2" d="M400.08,399.71"/>
<path class="st2" d="M200.09,399.71h199.99V199.89C400.08,310.25,310.54,399.71,200.09,399.71"/>
<path class="st1" d="M400.08,199.89c0,110.36-89.54,199.82-199.99,199.82h199.99V199.89z"/>
<path class="st3" d="M200.09,399.71c110.45,0,199.99-89.47,199.99-199.82S310.54,0.07,200.09,0.07H-0.45v400.76L200.09,399.71z"/>
</svg>