<?xml version="1.0" encoding="utf-8"?>
<svg version="1.1" id="Layer_1" xmlns="http://www.w3.org/2000/svg" xmlns:xlink="http://www.w3.org/1999/xlink" x="0px" y="0px" viewBox="0 0 400 400"
	 style="enable-background:new 0 0 400 400;" xml:space="preserve">
<style type="text/css">
	.st0{fill: white; stroke: black; stroke-width: 3;}
	.st1{fill: white; stroke: black; stroke-width: 3;}
	.st2{fill: white; stroke: black; stroke-width: 3;}
</style>
<path class="st0" d="M875.91,66.28c-1.74,0-3.47,0.02-5.19,0.07h10.38C879.37,66.3,877.64,66.28,875.91,66.28z"/>
<polygon class="st1" points="169.13,354.8 16.86,202.61 347.1,33.27 99.48,198.25 			"/>
<path class="st2" d="M400.07,0h-10L0.07,199.98l200.1,199.98l-88.12-198.07L400.07,10V0z M99.48,198.25l69.65,156.55L16.86,202.61 L347.1,33.27L99.48,198.25z"/>
<polygon class="st1" points="0.07,0 0.07,199.98 390.07,0 			"/>
<polygon class="st1" points="0.07,399.96 200.17,399.96 0.07,199.98 			"/>
<polygon class="st1" points="200.17,399.96 400.07,399.96 400.07,10 112.05,201.89 			"/>
</svg>