<?xml version="1.0" encoding="utf-8"?>
<svg version="1.1" id="Layer_1" xmlns="http://www.w3.org/2000/svg" xmlns:xlink="http://www.w3.org/1999/xlink" x="0px" y="0px" 
  viewBox="0 0 400 400" style="enable-background:new 0 0 400 400;" xml:space="preserve" width="100%">
<style type="text/css">
	.st0{fill: white; stroke: black; stroke-width: 3;}
	.st1{fill: white; stroke: black; stroke-width: 3;}
	.st2{fill: white; stroke: black; stroke-width: 3;}
	.st3{fill: white; stroke: black; stroke-width: 3;}
	.st4{fill: white; stroke: black; stroke-width: 3;}
	.st5{fill: white; stroke: black; stroke-width: 3;}
</style>
<polyline class="st0" points="319.96,399.91 319.96,210.26 300.08,210.26 300.08,330.15 260.11,330.15 260.11,290.18 240.23,290.18 240.23,350.03 300.08,350.03 300.08,399.91 "/>
<path class="st1" d="M0.27,180.02c27.56,0.17,50.04-22.04,50.2-49.6c0.17-27.56-22.04-50.04-49.6-50.2c-0.2,0-0.4,0-0.6,0"/>
<line class="st2" x1="539.35" y1="184.78" x2="539.35" y2="184.78"/>
<line class="st3" x1="0.27" y1="180.02" x2="0.27" y2="180.02"/>
<line class="st3" x1="0.27" y1="180.02" x2="0.27" y2="180.02"/>
<line x1="300.08" y1="210.26" x2="300.08" y2="210.26"/>
<line class="st3" x1="0.57" y1="180.02" x2="0.57" y2="180.02"/>
<path class="st4" d="M0.27,0.29v79.79c0.19,0,0.37,0,0.56,0c27.56,0.17,49.77,22.64,49.6,50.2c-0.17,27.55-22.62,49.74-50.16,49.6 v220.02h299.81v-49.88h-59.84v-59.84h19.88v39.96h39.96V210.26h19.88v189.65h79.92V0.29H0.27z"/>
<line class="st5" x1="759.28" y1="210.26" x2="759.28" y2="210.26"/>
</svg>