<?xml version="1.0" encoding="utf-8"?>
<svg version="1.1" id="Layer_1" 
	 xmlns="http://www.w3.org/2000/svg" xmlns:xlink="http://www.w3.org/1999/xlink" x="0px" y="0px" viewBox="0 0 400 400"
	 style="enable-background:new 0 0 400 400;" xml:space="preserve">
<style type="text/css">
	.st0{fill: white; stroke: black; stroke-width: 3;}
	.st1{fill: white; stroke: black; stroke-width: 3;}
	.st2{fill:white;stroke:#000000;stroke-width:3.4477;stroke-linejoin:round;stroke-miterlimit:10;}
	.st3{fill:white;stroke:#000000;stroke-width:3.4477;stroke-linejoin:round;stroke-miterlimit:10;}
	.st4{fill:white;stroke:#000000;stroke-width:3.4477;stroke-linejoin:round;stroke-miterlimit:10;}
	.st5{fill:white;stroke:#000000;stroke-width:3.4477;stroke-linejoin:round;stroke-miterlimit:10;}
	.st6{fill:white;stroke:#000000;stroke-width:3.4477;stroke-linejoin:round;stroke-miterlimit:10;}
	.st7{fill:white;stroke:#000000;stroke-width:3.4477;stroke-linejoin:round;stroke-miterlimit:10;}
</style>
<line class="st0" x1="539.35" y1="184.78" x2="539.35" y2="184.78"/>
<line class="st1" x1="759.28" y1="210.26" x2="759.28" y2="210.26"/>
<line class="st0" x1="1017.41" y1="184.78" x2="1017.41" y2="184.78"/>
<line class="st1" x1="1237.34" y1="210.26" x2="1237.34" y2="210.26"/>
<rect x="199.96" y="200.11" class="st2" width="131.96" height="65.81"/>
<line class="st3" x1="199.96" y1="233.05" x2="199.96" y2="233.05"/>
<line class="st3" x1="199.96" y1="200.11" x2="199.96" y2="200.11"/>
<line class="st3" x1="331.92" y1="200.11" x2="331.92" y2="200.11"/>
<line class="st3" x1="331.92" y1="200.11" x2="331.92" y2="200.11"/>
<line class="st3" x1="199.96" y1="200.11" x2="199.96" y2="200.11"/>
<line class="st3" x1="199.96" y1="200.11" x2="199.96" y2="200.11"/>
<line class="st3" x1="199.96" y1="265.92" x2="199.96" y2="265.92"/>
<line class="st3" x1="199.96" y1="265.92" x2="199.96" y2="265.92"/>
<polygon class="st4" points="399.81,399.75 331.92,265.92 331.92,200.11 399.81,0.46 			"/>
<path class="st3" d="M399.81,0.46"/>
<polyline class="st5" points="331.92,265.92 399.81,399.75 0.11,399.75 199.96,265.92 331.92,265.92 			"/>
<polyline class="st6" points="331.92,200.11 399.81,0.46 0.11,0.46 199.96,200.11 331.92,200.11 			"/>
<polygon class="st7" points="0.11,0.46 199.96,200.11 199.96,265.92 0.11,399.75 		"/>
</svg>