<?xml version="1.0" encoding="utf-8"?>
<svg version="1.1" id="Layer_1" xmlns="http://www.w3.org/2000/svg" xmlns:xlink="http://www.w3.org/1999/xlink" x="0px" y="0px" viewBox="0 0 400 400"
	 style="enable-background:new 0 0 400 400;" xml:space="preserve">
<style type="text/css">
	.st0{fill:white;stroke:black;}
	.st1{fill:white;stroke:black;}
	.st2{fill:white;stroke:black;}
</style>
<rect x="0.06" y="0.02" class="st0" width="399.9" height="400"/>
<path class="st1" d="M117.08,206.68c5.18-9.49,13.48-16.9,23.49-20.99c5.37-2.93,9.97-7.09,13.41-12.15 c3.92-6.47,7.12-13.34,9.55-20.49c5.38-11.01,14.08-20.06,24.86-25.89c10.48-5.15,21.68-8.65,33.21-10.39 c10.06-1.29,20.13-2.49,30.21-3.59c-11.06,11.05-21.57,22.65-31.45,34.76c-5.83,6.93-13.32,12.28-21.77,15.56 c-7.94,4.91-14.88,11.28-20.44,18.78c-5.49,6.55-12.7,11.43-20.81,14.09C144.23,200.94,130.77,204.39,117.08,206.68z"/>
<path class="st1" d="M116.78,264.79c9.46,5.74,20.53,8.24,31.52,7.11c5-0.86,10.15-0.25,14.81,1.75 c6.06,2.94,12.55,4.89,19.23,5.76c13.74,0.72,27.46-1.84,40-7.48c8.66-3.24,18.09-3.78,27.07-1.53	c10.81,0.82,21.59-1.93,30.68-7.83c-13.64-10.93-29.97-18-47.29-20.44c-11.17-1.42-22.51,0.65-32.45,5.93	c-7.28,3.37-15.58,3.81-23.17,1.19c-7.39-2.76-15.27-3.95-23.15-3.51C139.48,246.52,125.94,253.44,116.78,264.79"/>
<path class="st1" d="M56.77,312.72c4.63-4.87,8.97-10,13.01-15.37c5.29-11.1,7.36-23.47,5.98-35.7c0.14-8.1-1.83-16.09-5.74-23.19 c-3.87-6.23-5.68-13.53-5.17-20.86c2.58-12.51,0.75-25.52-5.18-36.83c-4.17,7.89-8.72,15.57-13.64,23.02	c-4.11,8.05-6.8,16.76-7.92,25.73c1.62,9.61,6.05,18.53,12.76,25.61c6.08,7.4,7.85,17.43,4.66,26.46 C50,291.36,50.48,303.42,56.77,312.72z"/>
<path class="st1" d="M75.72,352.11c4.08,3.44,10.08,3.32,14.01-0.28c4.53-2.29,9.62-3.21,14.67-2.67 c6.66,1.04,13.44,0.99,20.08-0.13c13.35-3.34,25.7-9.81,36.05-18.88c7.33-5.63,16.19-8.92,25.43-9.4 c10.7-3.03,20.59-8.44,28.9-15.83c-12.33-0.01-24.54-2.34-36.01-6.85c-13.81-5.31-29.44-2.19-40.14,8.03	c-5.69,6.98-13.22,12.25-21.73,15.19c-9.55-0.25-18.87,2.92-26.3,8.94C83.79,336.03,78.62,343.59,75.72,352.11"/>
<path class="st1" d="M121.5,200.01c-0.2,0.19-0.79,0.54-1.08,0.56c-0.68,0.06-1.28-0.44-1.34-1.13c0.77-5.39,0.93-8.26,3.5-13.06	c5.35-11.25,6.27-24.11,2.56-36.02c-1.9-6.42-4.94-12.43-8.98-17.77c-3.82-6.59-5.83-14.08-5.81-21.69 c-0.36-18.05-8.54-35.04-22.43-46.55c3.57,10.73,3.42,22.35-0.46,32.97c-4.11,7.95-4.24,17.38-0.36,25.45 c4.7,8.7,8.44,17.89,11.15,27.39c2.22,6.65,2.11,13.85-0.29,20.44c-4.63,15.23,3.91,31.35,19.11,36.07L121.5,200.01z"/>
<path class="st2" d="M0.06,400.02v-6.41c16.26-12.95,28.58-26.13,42.9-41.14c4.7-14.45,8.24-33.78,9.68-48.9l4.13,9.15l5.7-6.29 c-0.84,8.69-2.49,20.14-4.37,28.71c17.91-22.56,31.57-47.87,40.65-75.32c7.49-17.41,12.03-36.42,13.44-55.15l4.89,2.02l5.12-0.91	c-1.33,17.37-5.18,34.89-11.41,51.12c1.28-0.19,2.57-0.29,3.86-0.29c2.54,0,6.25,0.71,8.69,1.43l-6.56,6.75l4.64,2.5 c0,0-6.13-0.62-6.77-0.62c-2.97,0-5.86,0.79-8.41,2.29c-10.35,28.89-25.61,55.32-45.39,78.68c5.68-1.83,13.03-3.47,18.91-4.41 l-4.05,8.88l2.34,1.5c-11.45,2.25-24.35,6.78-34.5,12.54c-12.07,12.3-23.51,22.76-37.39,33.86L0.06,400.02z"/>
</svg>