<?xml version="1.0" encoding="utf-8"?>
<svg version="1.1" id="Layer_1" xmlns="http://www.w3.org/2000/svg" xmlns:xlink="http://www.w3.org/1999/xlink" x="0px" y="0px" viewBox="0 0 400 400"
	 style="enable-background:new 0 0 400 400;" xml:space="preserve">
<style type="text/css">
	.st0{fill:white;stroke:black;}
	.st1{fill:white;stroke:black;}
</style>
<rect x="0.01" y="0.01" class="st0" width="400.01" height="400.01"/>
<rect x="0.01" y="0.01" class="st0" width="400.01" height="400.01"/>
<path class="st1" d="M63.77,208.87c-21.34-1.27-42.42-2.44-63.77-3.51v-10.7c21.3,1.08,42.85,2.26,64.14,3.54
		c47.44-0.95,108.95-24.2,128.14-42.81l7.42-7.24c13.01-12.72,14.07-13.76,25.01-19.37c14.17-7.27,29.4-10.96,45.23-10.96
		c37.45,0,71.34,20.69,88.43,53.99c7.59,14.16,22.31,22.97,38.41,22.97c0.95,0,2.26-0.06,3.24-0.12v10.68
		c-1.2,0.08-2.04,0.11-3.24,0.11c-20.05,0-38.4-10.99-47.86-28.68c-15.25-29.8-45.51-48.29-78.97-48.29
		c-14.11,0-27.67,3.28-40.32,9.76c-8.81,4.5-9.75,5.43-18.8,14.21c-2.8,2.71-6.33,6.16-11.11,10.66
		c-20.97,19.83-87.75,44.84-135.79,45.75h-0.08H63.77z"/>
</svg>