<?xml version="1.0" encoding="utf-8"?>
<svg version="1.1" id="Layer_1" xmlns="http://www.w3.org/2000/svg" xmlns:xlink="http://www.w3.org/1999/xlink" x="0px" y="0px" viewBox="0 0 400 400"
	 style="enable-background:new 0 0 400 400;" xml:space="preserve">
<style type="text/css">
	.st0{fill:white;stroke:black;}
	.st1{fill:white;stroke:black;}
	.st2{fill:white;stroke:black;}
</style>
<rect x="0.09" y="0.09" class="st0" width="399.92" height="399.86"/>
<rect x="0.09" y="0.09" class="st0" width="399.92" height="399.86"/>
<path class="st1" d="M268.68,171.46c0.86-1.76,1.59-3.58,2.21-5.44c4.76-12.44,14.05-22.63,26-28.51
	c6.31-3.21,13.14-5.27,20.18-6.07l-0.4,0.07c6.85-1.63,13.14-5.05,18.22-9.92c17.34-15.84,41.84-21.16,64.2-13.95
	c-14.38,2.65-26.69,11.88-33.24,24.94c-3.33,9.37-10.85,16.65-20.33,19.67c-9.37,2.52-18.42,6.07-27.01,10.57
	c-5.72,2.65-10.36,7.19-13.15,12.84c-8.21,14.58-26.22,20.47-41.47,13.55L268.68,171.46z"/>
<path class="st2" d="M194.72,399.95c0-21.37,1.19-43,3.52-64.29c-0.95-45.96-25.62-113.19-42.67-127.78
	c-16.36-13.99-18.22-17.29-23.19-26.12l-1.43-2.52c-27.13-47.54-10.52-108.28,37.01-135.41c17.21-7.5,27.85-25.22,26.79-43.74
	h10.74c1.3,22.78-11.86,44.01-32.72,53.26c-20.33,11.72-35.01,30.79-41.17,53.65c-6.16,22.85-3.04,46.73,8.77,67.24
	c6.03,10.46,14.46,18.66,22.66,25.95c8.73,7.76,32.69,57.11,41.12,93.78c5.04-22.19,13.02-43.57,23.77-63.66
	c7.29-16.96,17.22-32.76,29.46-46.8l6.5,5.73l2.48,1c-11.55,13.29-21.9,28.52-28.82,44.7c-16.73,31.22-26.61,66.23-28.66,101.39
	c-1.27,21.3-2.43,42.39-3.51,63.7L194.72,399.95z"/>
<path class="st1" d="M258.9,184.81c1.28,1.85,3,3.37,5,4.42c4.84-11.88,4.96-25.14,0.34-37.11c-1.39-5.32-1.51-10.9-0.36-16.27
	c1.93-7.09,4.65-13.95,8.08-20.45c4.59-12.22,5.22-25.57,1.8-38.15c-3.59-11.5-8.93-22.37-15.82-32.24
	c-7.9-10.79-15.93-21.47-24.09-32.07c-0.09,18.72-1.32,37.41-3.68,55.98c-1.06,9.46,0.25,19.02,3.82,27.85
	c1.78,8.67,1.9,17.59,0.36,26.3c-1.06,9.13,0.46,18.37,4.4,26.68c5.42,12.01,11.37,22.74,18.64,33.75L258.9,184.81z"/>
</svg>