<?xml version="1.0" encoding="utf-8"?>
<svg version="1.1" id="Layer_1" xmlns="http://www.w3.org/2000/svg" xmlns:xlink="http://www.w3.org/1999/xlink" x="0px" y="0px" viewBox="0 0 400 400"
	 style="enable-background:new 0 0 400 400;" xml:space="preserve">
<style type="text/css">
	.st0{fill:white;stroke:black;}
	.st1{fill:white;stroke:black;}
	.st2{fill:white;stroke:black;}
</style>
<rect x="0.22" y="-0.04" class="st0" width="399.76" height="400.22"/>
<rect x="0.22" y="-0.04" class="st0" width="399.76" height="400.22"/>
<path class="st1" d="M147.74,186.36c-3.31-10.3-2.97-21.43,0.96-31.51c1.58-5.92,1.72-12.12,0.43-18.11
	c-1.99-7.29-4.77-14.34-8.28-21.04c-4.27-11.49-4.85-24.04-1.65-35.88c3.48-11.15,8.65-21.69,15.33-31.26
	c5.99-8.18,12.04-16.32,18.19-24.39c0.4,15.64,1.58,31.25,3.54,46.78c1.01,9-0.27,18.12-3.7,26.5
	c-1.91,9.14-2.07,18.57-0.46,27.78c0.97,8.5-0.45,17.09-4.12,24.82C162.28,162.7,155.51,174.86,147.74,186.36z"/>
<path class="st1" d="M147.74,186.36l-1.54-6.21c-4.14-2.39-7.74-6.77-9.38-11.76c-4.47-11.64-13.17-21.17-24.34-26.68
	c-5.96-3.04-12.42-4.98-19.06-5.73c-7.41-1.76-14.21-5.47-19.72-10.73c-13.32-12.17-31.27-17.94-49.17-15.8
	c10.23,4.8,18.54,12.93,23.58,23.06c2.94,8.46,9.67,15.04,18.19,17.79c9.54,2.58,18.78,6.19,27.53,10.79
	c6.34,2.97,11.5,8.01,14.61,14.29C116.29,189.23,133.85,194.13,147.74,186.36"/>
<path class="st1" d="M189.65,226.61c10.67-2.91,20.1-9.23,26.85-17.99c2.82-4.21,6.8-7.53,11.45-9.54
	c6.31-2.37,12.19-5.75,17.42-9.99c9.98-9.47,17.56-21.19,22.12-34.19c3.61-8.52,9.72-15.74,17.52-20.7
	c8.03-7.29,13.46-17.01,15.45-27.67c-17.32,2.36-33.68,9.36-47.37,20.24c-8.71,7.14-15.01,16.79-18.04,27.65
	c-2.56,7.61-7.97,13.93-15.08,17.64c-7.09,3.45-13.39,8.35-18.48,14.37C192.04,197.54,187.73,212.15,189.65,226.61z"/>
<path class="st1" d="M159.14,254.22c-5.77-5.69-12.93-9.77-20.75-11.81c-7.19-1.49-13.72-5.2-18.68-10.62
	c-7.28-10.49-17.98-18.14-30.25-21.62c2.85,8.46,5.27,17.06,7.28,25.76c3,8.53,7.46,16.48,13.2,23.48
	c8.07,5.45,17.6,8.37,27.34,8.39c9.55,0.68,18.03,6.31,22.38,14.85c3.28,10.73,12.35,18.69,23.41,20.53
	c-0.34-6.71-1.07-13.4-2.18-20.03C176.49,271.66,168.96,261.64,159.14,254.22z"/>
<path class="st1" d="M237.66,333.81c9.14,7.29,20.32,11.58,31.99,12.3c5.02-0.71,10.14,0.06,14.74,2.19
	c6.63,2.36,13.59,3.67,20.62,3.9c12.77-0.57,25.22-4.17,36.33-10.51c6.7-3.68,14.59-4.5,21.9-2.29c4.07,1.49,8.28,2.56,12.55,3.21
	c-4.72-9.4-12.03-17.25-21.07-22.62c-9.93-6.83-22.66-8.09-33.74-3.34c-7.37,3.16-15.68,3.33-23.19,0.49
	c-7.31-2.54-15.09-3.49-22.8-2.81C260.37,315.28,246.8,322.34,237.66,333.81z"/>
<path class="st1" d="M224.67,316.58c5.29-0.6,9.33-5.03,9.44-10.36c1.46-4.86,4.29-9.2,8.16-12.49
	c5.33-4.11,9.97-9.06,13.72-14.65c6.77-11.99,10.58-25.41,11.14-39.18c0.95-9.2,4.69-17.89,10.68-24.92
	c5.18-9.86,8.06-20.76,8.42-31.88c-8.49,8.93-18.58,16.21-29.76,21.41c-13.35,6.36-21.85,19.86-21.8,34.67
	c1.15,8.94-0.22,18.02-3.94,26.24c-6.76,6.76-10.88,15.71-11.62,25.25C218.57,299.64,220.49,308.6,224.67,316.58z"/>
<path class="st2" d="M194.33,400.18c8.05-19.38,10.91-41.35,7.63-62.09c-0.12-1.79-0.22-3.42-0.35-5.04
	c-5.86-10.01-22.09-30.68-22.09-30.68l3.56,0.82l-1.37-14.68c5.25,5.79,12.16,14.04,16.81,20.41
	c-4.52-25.37-12.97-49.72-25.16-72.52c-7.46-17.43-18.03-33.88-30.64-47.81l5.03-2.22l3.1-4.7c11.51,12.73,21.4,27.5,28.86,42.96
	c2.28-3.06,6.14-6.16,9.5-8.04l0.45,10.04l4.27-1.37c-2.63,2.2-7.54,8.12-8.41,11.43c13.68,27.05,22.34,55.94,25.79,85.98
	c2.52-5.06,6.29-11.25,9.49-15.89l3.87,9.8l2.87-0.74c0,0-5.5,9.08-7.33,12.9c4.89-2.39,10.26-3.64,15.81-3.64
	c2.56,0,6.3,0.53,8.81,1.07l-7.17,7.64c0,0,2.93,1.86,2.43,1.84c-12.4-0.58-21.78,5.1-26.27,13.17c0.98,17.65-1.59,34.93-8,51.37
	H194.33z"/>
</svg>