<?xml version="1.0" encoding="utf-8"?>
<svg version="1.1" id="Layer_1"
	 xmlns="http://www.w3.org/2000/svg" xmlns:xlink="http://www.w3.org/1999/xlink" x="0px" y="0px" viewBox="0 0 400 400"
	 style="enable-background:new 0 0 400 400;" xml:space="preserve">
<style type="text/css">
	.st0{fill: white; stroke: black; stroke-width: 3}
	.st1{fill: white; stroke: black; stroke-width: 3;}
</style>
<rect x="0.06" y="0.07" class="st0" width="399.67" height="399.73"/>
<path class="st1" d="M339.34,192.88c-37.76-38.59-76.81-53.61-97.35-59.21c7.95-12.42,22.24-32.98,41.07-52.77
			c52.65-55.31,115.93-69.21,116.61-69.36l0.04-11.47c-1.23,0.26-29.1,0.07-29.1,0.07c-27.27,10.54-67.61,30.82-102.02,66.98
			c-26.36,27.69-43.96,56.16-49.4,65.44c-18.66,8.05-109.9,50.26-162.67,127.73c-25.67,37.68-45.3,82.84-56.17,110.59
			c0,0,0.32,27.69-0.05,28.8h10.63c0.25-0.77,24.46-72.88,62.11-128.14c49.54-72.73,138.52-113.83,154.39-120.74
			c10.77,2.01,55.09,12.6,97.62,56.06c52,53.16,64.79,191.53,64.92,192.93l10.08-0.06c-0.22-2.53,0-65.06,0-65.06
			C390.41,287.51,372.37,226.62,339.34,192.88z"/>
<path class="st1" d="M25.48,51.07c-14.04,0-25.43-11.39-25.43-25.43c0-7.02,0.15-25.57,0.15-25.57s18.26,0.14,25.28,0.14
			c14.04,0,25.43,11.39,25.43,25.43c0,6.94,0.1,25.19,0.1,25.19S32.58,51.07,25.48,51.07z"/>
</svg>