<?xml version="1.0" encoding="utf-8"?>
<svg version="1.1" id="Layer_1"
	 xmlns="http://www.w3.org/2000/svg" xmlns:xlink="http://www.w3.org/1999/xlink" x="0px" y="0px" viewBox="0 0 400 400"
	 style="enable-background:new 0 0 400 400;" xml:space="preserve">
<style type="text/css">
	.st0{fill: white; stroke: black; stroke-width: 3;}
	.st1{fill: white; stroke: black; stroke-width: 3;}
</style>
<rect x="-0.04" y="0.22" class="st0" width="400.1" height="400.09"/>
<rect x="-0.04" y="0.22" class="st0" width="400.1" height="400.09"/>
<path class="st1" d="M281.47,150.16c10.64-3.05,18.44-12.83,18.44-24.45c0-7.03,0.14-25.3,0.14-25.3s-18.56-0.14-25.59-0.14
  c-11.61,0-21.38,7.77-24.45,18.39c-3.05-10.62-12.82-18.41-24.44-18.41c-7.11,0-25.56,0.24-25.56,0.24s0.11,18.25,0.11,25.21
  c0,11.62,7.81,21.41,18.46,24.45c-10.64,3.05-18.44,12.84-18.44,24.45c0,7.03-0.15,25.31-0.15,25.31s18.57,0.14,25.6,0.14
  c11.6,0,21.38-7.77,24.43-18.39c3.06,10.62,12.84,18.41,24.45,18.41c7.11,0,25.56-0.24,25.56-0.24s-0.1-18.26-0.1-25.21
  C299.93,162.99,292.12,153.2,281.47,150.16"/>
</svg>