<?xml version="1.0" encoding="utf-8"?>
<svg version="1.1" id="Layer_1"
	 xmlns="http://www.w3.org/2000/svg" xmlns:xlink="http://www.w3.org/1999/xlink" x="0px" y="0px" viewBox="0 0 400 400"
	 style="enable-background:new 0 0 400 400;" xml:space="preserve">
<style type="text/css">
	.st0{fill: white; stroke: black; stroke-width: 3;}
	.st1{fill: white; stroke: black; stroke-width: 3;}
</style>
<rect x="0.02" y="0.02" class="st0" width="399.91" height="399.91"/>
<path class="st1" d="M348.91,25.32c0-14.05,11.39-25.44,25.44-25.44c7.02,0,25.58,0.15,25.58,0.15s-0.14,18.27-0.14,25.29
  c0,14.05-11.39,25.44-25.44,25.44c-6.95,0-25.2,0.1-25.2,0.1S348.91,32.42,348.91,25.32z"/>
<path class="st1" d="M51.04,374.48c0,14.05-11.39,25.44-25.44,25.44c-7.02,0-25.58-0.14-25.58-0.14s0.14-18.27,0.14-25.3
  c0-14.05,11.39-25.44,25.44-25.44c6.95,0,25.2-0.1,25.2-0.1S51.04,367.38,51.04,374.48z"/>
<path class="st1" d="M374.49,348.92c14.05,0,25.44,11.39,25.44,25.43c0,7.03-0.15,25.58-0.15,25.58s-18.27-0.14-25.29-0.14
  c-14.05,0-25.44-11.39-25.44-25.44c0-6.95-0.1-25.2-0.1-25.2S367.39,348.92,374.49,348.92z"/>
</svg>