<?xml version="1.0" encoding="utf-8"?>
<svg version="1.1" id="Layer_1"
	 xmlns="http://www.w3.org/2000/svg" xmlns:xlink="http://www.w3.org/1999/xlink" x="0px" y="0px" viewBox="0 0 400 400"
	 style="enable-background:new 0 0 400 400;" xml:space="preserve">
<style type="text/css">
	.st0{fill: white; stroke: black; stroke-width: 3}
	.st1{fill: white; stroke: black; stroke-width: 3}
	.st2{fill: white; stroke: black; stroke-width: 3}
</style>
<path class="st0" d="M0.06,0.05l0,379.84c0,0,7.09-1.19,9.99-10c12.43-37.88,74.14-14.19,82.03-64.24
  c14.77-93.8,74.2-61.18,107.97-96.94c55.48-58.74-16.28-139.73,76.63-138.25c78.69,1.27,51.8-56.7,93.2-60.4
  c10.03-0.91,9.99-10,9.99-10L0.06,0.05z"/>
<path class="st1" d="M399.86,20.05c-67.41,10.78-1.58,69-96.94,107.08c-45.79,18.29,11.9,79.98-37.35,132.79
  c-38.62,41.39-107.25-0.32-129.3,68.44c-24.8,77.4-114.91,14.77-116.22,71.51h379.81L399.86,20.05z"/>
<path class="st2" d="M0.06,399.87l0.92,0h19.07c1.31-56.74,91.42,5.89,116.22-71.51c22.04-68.76,90.68-27.04,129.3-68.44
  c49.25-52.8-8.43-114.49,37.35-132.79c95.36-38.09,29.53-96.3,96.94-107.08v-20h-19.99c0,0,0.04,9.09-9.99,10
  c-41.4,3.7-14.51,61.67-93.2,60.4c-92.9-1.48-21.14,79.51-76.63,138.25c-33.77,35.76-93.21,3.14-107.97,96.94
  c-7.89,50.05-69.6,26.36-82.03,64.24c-2.9,8.81-9.99,10-9.99,10L0.06,399.87z"/>
<path class="st2" d="M0.06,20.05c11.05,0,19.98-8.96,19.98-20H0.06V20.05z"/>
<path class="st2" d="M399.86,379.88c-11.04,0-19.98,8.95-19.98,19.98h19.98V379.88z"/>
</svg>
