<?xml version="1.0" encoding="utf-8"?>
<svg version="1.1" id="Layer_1"
	 xmlns="http://www.w3.org/2000/svg" xmlns:xlink="http://www.w3.org/1999/xlink" x="0px" y="0px" viewBox="0 0 400 400"
	 style="enable-background:new 0 0 400 400;" xml:space="preserve">
<style type="text/css">
	.st0{fill: white; stroke: black; stroke-width: 3}
	.st1{fill: white; stroke: black; stroke-width: 3}
</style>
<rect id="XMLID_22_" x="0.05" y="0.08" transform="matrix(-1 4.489774e-11 -4.489774e-11 -1 399.9976 400.0871)" class="st0" width="399.89" height="399.94"/>
<path id="XMLID_21_" class="st1" d="M76.5,86.68l5.07-5.07l5.07-5.07c10.32-10.36,28.39-35.17-14.71-51.39
  c-37.65-14.17-49.31-10.17-52.92-6.1l0,0c0,0,0,0,0,0c0,0,0,0,0,0l0,0c-4.06,3.61-8.06,15.28,6.1,52.93
  C41.33,115.07,66.14,97.01,76.5,86.68z"/>
</svg>