<?xml version="1.0" encoding="utf-8"?>
<svg version="1.1" id="Layer_1" xmlns="http://www.w3.org/2000/svg" xmlns:xlink="http://www.w3.org/1999/xlink" x="0px" y="0px" viewBox="0 0 400 400"
	 style="enable-background:new 0 0 400 400;" xml:space="preserve">
<style type="text/css">
	.st0{fill: white; stroke: black; stroke-width: 3;}
	.st1{fill: white; stroke: black; stroke-width: 3;;}
	.st2{fill: white; stroke: black; stroke-width: 3;}
</style>
<path id="XMLID_1055_" class="st0" d="M42.6,149.43c-0.49-106.74,58.33-95.92,122.62-105.9c64.29-9.98,123.14,71.5,105.99,122.52	c-9.96,29.63-86.85,135.54-134.49,140.44C89.1,311.38,43.03,242.05,42.6,149.43z"/>
<path id="XMLID_1053_" class="st1" d="M153.37,399.86H399.9V177.84C311.83,237.76,208.62,333.44,153.37,399.86z"/>
<path id="XMLID_1052_" class="st2" d="M271.22,166.04c17.15-51.02-41.7-132.5-105.99-122.52c-64.29,9.98-123.11-0.84-122.62,105.9 c0.42,92.62,46.5,161.95,94.13,157.05C184.36,301.58,261.25,195.68,271.22,166.04z"/>
<path class="st0" d="M-0.12,399.86h153.49c55.25-66.42,158.46-162.1,246.54-222.02V0.17H-0.12V399.86z M271.22,166.04	c-9.96,29.63-86.85,135.54-134.49,140.44s-93.7-64.44-94.13-157.05c-0.49-106.74,58.33-95.92,122.62-105.9 C229.52,33.54,288.37,115.02,271.22,166.04z"/>
</svg>