<?xml version="1.0" encoding="utf-8"?>
<svg version="1.1" id="Layer_1" 
	 xmlns="http://www.w3.org/2000/svg" xmlns:xlink="http://www.w3.org/1999/xlink" x="0px" y="0px" viewBox="0 0 400 400"
	 style="enable-background:new 0 0 400 400;" xml:space="preserve">
<style type="text/css">
	.st0{fill: white; stroke: black; stroke-width: 3;}
	.st1{fill: white; stroke: black; stroke-width: 3;}
</style>
<path class="st0" d="M349,123.38c-42.25,0-76.63,34.39-76.63,76.66c0,31.24-25.41,56.66-56.64,56.66h-72.25v-42.36
  c0-34.39-27.97-62.36-62.34-62.36c-34.37,0-62.34,27.97-62.34,62.36c0,34.38,27.97,62.35,62.34,62.35h42.34v123.32h19.99V276.69
  h72.25c42.26,0,76.63-34.39,76.63-76.65c0-31.24,25.41-56.66,56.64-56.66h51.03v-20H349z M81.14,256.7
  c-23.35,0-42.34-19.01-42.34-42.36c0-23.36,19-42.37,42.34-42.37c23.35,0,42.34,19.01,42.34,42.37v42.36H81.14z" shape-rendering="crispEdges"/>
<path class="st1" d="M81.14,171.97c-23.35,0-42.34,19.01-42.34,42.37c0,23.35,19,42.36,42.34,42.36h42.34v-42.36
  C123.48,190.98,104.48,171.97,81.14,171.97z" shape-rendering="crispEdges"/>
<path class="st1" d="M123.48,276.69H81.14c-34.37,0-62.34-27.97-62.34-62.35c0-34.39,27.97-62.36,62.34-62.36
  c34.37,0,62.34,27.97,62.34,62.36v42.36h72.25c31.23,0,56.64-25.42,56.64-56.66c0-42.27,34.38-76.66,76.63-76.66h51.02V0.07H0.2
  v399.94h123.28V276.69z" shape-rendering="crispEdges"/>
<path class="st1" d="M349,143.38c-31.23,0-56.64,25.42-56.64,56.66c0,42.26-34.37,76.65-76.63,76.65h-72.25v123.32h256.55V143.38
  H349z" shape-rendering="crispEdges"/>
</svg>