<?xml version="1.0" encoding="utf-8"?>
<svg version="1.1" id="Layer_1"
	 xmlns="http://www.w3.org/2000/svg" xmlns:xlink="http://www.w3.org/1999/xlink" x="0px" y="0px" viewBox="0 0 400 400"
	 style="enable-background:new 0 0 400 400;" xml:space="preserve">
<style type="text/css">
	.st0{fill: white; stroke: black; stroke-width: 3;}
	.st1{fill: white; stroke: black; stroke-width: 3;}
</style>
<polygon class="st0" points="400.24,400.09 0.19,400.09 0.19,0.04 400.24,0.04 400.24,100.05 		"/>
<path class="st1" d="M313.46,74.67c-1.45-24.3-2.95-49.42-2.71-74.54l-20.01-0.19c-0.23,25.81,1.28,51.28,2.75,75.92
  c1.77,29.78,3.49,58.85,1.87,86.4c-18.79-3.39-74.68-14.72-106.33-34.14c-57.28-35.15-78.58-69.86-78.58-128.08h-20
  c0,65.53,24.7,106.22,88.12,145.13c35.9,22.04,96.81,33.92,114.94,37.09c-3.78,29.14-12.52,56.24-30.5,80.21
  c-35.94,47.93-54.94,56.59-60.27,58.14l-3.42,0.3c-0.42,0.03-42.76,3.35-93.74-29.26c-14.94-9.56-25.46-27.5-35.63-44.85
  c-15.6-26.59-33.27-56.74-69.77-56.74v20.01c25.04,0,37.77,21.71,52.5,46.85c11.37,19.39,23.13,39.43,42.12,51.58
  c41.36,26.46,77.91,31.62,95.4,32.4v59.19h20v-60.74c12.98-4.46,34.92-19.68,68.81-64.87
  C321.96,217.23,317.83,147.98,313.46,74.67z"/>
</svg>